<?xml version="1.0" encoding="utf-8"?>
<!-- Generator: Adobe Illustrator 24.1.2, SVG Export Plug-In . SVG Version: 6.00 Build 0)  -->
<svg version="1.1" id="Layer_1" xmlns="http://www.w3.org/2000/svg" xmlns:xlink="http://www.w3.org/1999/xlink" x="0px" y="0px"
	 viewBox="0 0 1366 147" style="enable-background:new 0 0 1366 147;" xml:space="preserve">
<style type="text/css">
	.st0{fill:#F7B538;}
</style>
<g id="CIGAR">
	<path class="st0" d="M140.6,104.2h-0.1c-3.6,8.7-8.9,15.4-15.7,20c-6.8,4.6-15,6.9-24.5,6.9c-9.2,0-17.4-2.3-24.6-7
		c-7.3-4.7-13-11.4-17.1-20c-3.3-6.8-5.2-14.5-5.9-23.1c-5.3,0-11.7,0-17.5,0c0.8,11.3,3.6,21.6,8.4,30.8
		c5.8,11.2,13.6,19.9,23.6,26.2c10,6.3,21,9.4,33.2,9.4c14.3,0,26.8-3.8,37.4-11.3c8.6-6,15.2-14.2,20.1-24.3L140.6,104.2z"/>
	<path class="st0" d="M156.7,33.8c-4.7-9.3-11.1-16.8-19.1-22.5c-10.7-7.6-23.1-11.4-37.4-11.4C88-0.1,76.9,3.1,67,9.4
		c-10,6.4-17.8,15.2-23.6,26.4c-4.5,8.7-7.2,18.3-8.2,28.7c5.8,0,11.7,0,17.5,0c0.8-7.8,2.7-14.8,5.7-21c4.1-8.6,9.8-15.3,17.1-20
		c7.3-4.7,15.5-7.1,24.6-7.1c9.5,0,17.7,2.4,24.5,7.1c6.8,4.7,12.1,11.4,15.7,20.1L156.7,33.8C156.7,33.8,156.7,33.8,156.7,33.8z"/>
	<path class="st0" d="M220,1.8v144.5h-17.1V1.8H220z"/>
	<path class="st0" d="M369.1,11.5c-10.7-7.6-23-11.4-37-11.4c-12.2,0-23.3,3.1-33.3,9.4c-10,6.3-18,15.1-23.8,26.3
		c-5.8,11.3-8.7,23.9-8.7,38c0,14.1,2.9,26.7,8.7,37.9c5.8,11.2,13.8,19.9,23.8,26.2c10,6.3,21.1,9.4,33.3,9.4
		c10.1,0,19.3-2.2,27.8-6.6v-19.7c-7.6,6.1-16.9,9.2-27.8,9.2c-9.2,0-17.4-2.3-24.7-6.9c-7.3-4.6-13.1-11.2-17.3-19.8
		c-4.2-8.6-6.3-18.5-6.3-29.9c0-11.3,2.1-21.3,6.3-30c4.2-8.6,10-15.3,17.3-19.9c7.3-4.6,15.6-6.9,24.7-6.9c9.2,0,17.2,2.3,24.1,6.9
		c6.9,4.6,12.2,11.2,15.8,19.6l14.9-12.4C382.4,23.3,376.4,16.7,369.1,11.5z"/>
	<path class="st0" d="M345.6,74v14.1h30.6c-0.1,1.5-0.3,2.9-0.5,4.2l0.5,36.6c3.9-3.9,7.2-8.4,10.2-13.4c5.8-9.9,5.4-13.1,6.4-25V74
		H345.6z"/>
	<g id="A_1_">
		<polygon class="st0" points="490.8,27.7 500.1,2.6 483.3,2.6 426.7,147 445.6,147 462.1,104.6 462.2,104.6 467.4,90.5 		"/>
		<polygon class="st0" points="509.2,19.8 499.3,45.7 516.3,90.5 482.7,90.5 477.4,104.6 521,104.6 536,147 558.7,147 		"/>
	</g>
	<rect x="376.2" y="90.5" class="st0" width="16.5" height="56.6"/>
	<path class="st0" d="M654.4,95.2l33,51.9h21.2l-35.4-56.6c11.8-4.7,13.6-4.8,20.1-13.1c6.4-8.3,9.7-17.9,9.7-28.8
		c0-8.9-2.1-16.8-6.3-23.8c-4.2-6.9-10.5-12.5-19-16.5c-8.5-4.1-18.8-6.1-31.1-6.1h-52.4V147h21.2l0-51.5l20.1-0.2l-10.4-16.4h-9.7
		V19.1h31.2c11.6,0,20.3,2.6,26,7.7c5.7,5.1,8.5,12.4,8.5,21.8c0,9.2-2.9,16.6-8.6,22.1c-5.7,5.5-14.4,8.3-25.8,8.3h-3L654.4,95.2z"
		/>
</g>
<g id="BAY">
	<path class="st0" d="M944,64.5V17.4h34.2c10,0,17.6,2.1,22.8,6.3c5.3,4.2,7.9,9.9,7.9,17.3c0,7.4-2.6,13.1-7.9,17.3
		c-5.3,4.2-12.7,6.3-22.4,6.3h-13.5V81h15c10.2,0,18.4,2.4,24.5,7.1c6.1,4.7,9.1,11.1,9.1,19.3c0,8-2.9,14.3-8.7,18.8
		c-5.8,4.5-13.9,6.7-24.2,6.7h-35.9h-22.1V147h59.1c10.6,0,19.8-1.7,27.6-5.1c7.8-3.4,13.8-8.1,17.8-14c4.8-7,6.8-15,5.9-24
		c-0.3-3.1-1-6.1-2.3-8.9c-2.9-6.8-7.3-12.4-13.1-16.7c-4.8-3.5-10-5.7-15.8-6.5c8.3-2.5,15-6.6,20.1-12.3
		c5.1-5.7,7.6-12.8,7.6-21.5c0-7-1.9-13.3-5.7-18.9c-3.8-5.6-9.5-10-17-13.3c-7.6-3.3-16.7-4.9-27.5-4.9h-56.8v110.8H944V81V64.5z"
		/>
	<polygon class="st0" points="1309.4,2.1 1256.4,94.6 1256.4,147 1277,147 1277,94.6 1330.6,2.1 	"/>
	<g id="A_2_">
		<polygon class="st0" points="1129.8,27.7 1139.1,2.6 1122.3,2.6 1065.7,147 1084.6,147 1101.1,104.6 1101.2,104.6 1106.4,90.5 		
			"/>
		<polygon class="st0" points="1148.2,19.8 1138.3,45.7 1155.3,90.5 1121.7,90.5 1116.4,104.6 1160,104.6 1175,147 1197.7,147 		"/>
	</g>
	<polygon class="st0" points="1224.5,2.1 1203.3,2.1 1247.9,79.8 1258.2,62.1 	"/>
</g>
<g id="Block">
	<path class="st0" d="M803.5,96H736V1h67.5V96z M883.1,1h-79.6v35h79.6V1z"/>
	<path class="st0" d="M883,147h-66V51h66V147z M817,111h-81v36h81V111z"/>
</g>
</svg>
